<?xml version="1.0" encoding="UTF-8"?>
<svg height="16px" viewBox="0 0 16 16" width="16px" xmlns="http://www.w3.org/2000/svg" xmlns:xlink="http://www.w3.org/1999/xlink">
    <filter id="a" height="100%" width="100%" x="0%" y="0%">
        <feColorMatrix color-interpolation-filters="sRGB" values="0 0 0 0 1 0 0 0 0 1 0 0 0 0 1 0 0 0 1 0"/>
    </filter>
    <mask id="b">
        <g filter="url(#a)">
            <rect fill-opacity="0.15" height="19.2" width="19.2" x="-1.6" y="-1.6"/>
        </g>
    </mask>
    <clipPath id="c">
        <rect height="152" width="192"/>
    </clipPath>
    <g mask="url(#b)">
        <g clip-path="url(#c)" transform="matrix(1 0 0 1 -168 -16)">
            <path d="m 14.94933 278.089616 v -93.998976" fill="none" stroke="#ffffff" stroke-width="2" transform="matrix(0.837053 0 0 1.035126 18.474901 -166.119502)"/>
        </g>
    </g>
    <g fill="#222222">
        <path d="m 4.121094 4.980469 c -0.164063 -0.003907 -0.324219 0.0625 -0.441406 0.175781 c -0.230469 0.234375 -0.230469 0.617188 0 0.851562 l 1.578124 1.574219 l -1.578124 1.574219 c -0.230469 0.234375 -0.230469 0.617188 0 0.851562 c 0.234374 0.230469 0.613281 0.230469 0.847656 0 l 2 -2 c 0.234375 -0.234374 0.234375 -0.617187 0 -0.851562 l -2 -2 c -0.105469 -0.105469 -0.253906 -0.167969 -0.40625 -0.175781 z m 3.484375 4.101562 v 1 h 3 v -1 z m 0 0"/>
        <path d="m 3.191406 0.734375 c -1.617187 0 -2.949218 1.328125 -2.949218 2.945313 v 8.65625 c 0 1.617187 1.332031 2.949218 2.949218 2.949218 h 9.625 c 1.617188 0 2.945313 -1.332031 2.945313 -2.949218 v -8.65625 c 0 -1.617188 -1.328125 -2.945313 -2.945313 -2.945313 z m 0 1.9375 h 9.625 c 0.574219 0 1.007813 0.433594 1.007813 1.007813 v 8.65625 c 0 0.574218 -0.433594 1.007812 -1.007813 1.007812 h -9.625 c -0.578125 0 -1.007812 -0.433594 -1.007812 -1.007812 v -8.65625 c 0 -0.574219 0.429687 -1.007813 1.007812 -1.007813 z m 0 0"/>
    </g>
</svg>
