<?xml version="1.0" encoding="UTF-8"?>
<svg height="128px" viewBox="0 0 128 128" width="128px" xmlns="http://www.w3.org/2000/svg" xmlns:xlink="http://www.w3.org/1999/xlink">
    <filter id="a" height="100%" width="100%" x="0%" y="0%">
        <feColorMatrix color-interpolation-filters="sRGB" values="0 0 0 0 1 0 0 0 0 1 0 0 0 0 1 0 0 0 1 0"/>
    </filter>
    <linearGradient id="b" gradientTransform="matrix(0.209263 0 0 0.258781 20.477366 46.73779)" gradientUnits="userSpaceOnUse" x1="384" x2="416" y1="120" y2="120">
        <stop offset="0" stop-color="#e8e7e4"/>
        <stop offset="0.511049" stop-color="#ffffff"/>
        <stop offset="1" stop-color="#c2bfba"/>
    </linearGradient>
    <linearGradient id="c" gradientTransform="matrix(0.837053 0 0 1.035126 10.474901 -182.119502)" gradientUnits="userSpaceOnUse" x1="11.949611" x2="115.949623" y1="231.091248" y2="231.091248">
        <stop offset="0" stop-color="#2ec27e"/>
        <stop offset="1" stop-color="#57e389"/>
    </linearGradient>
    <mask id="d">
        <g filter="url(#a)">
            <rect fill-opacity="0.15" height="153.6" width="153.6" x="-12.8" y="-12.8"/>
        </g>
    </mask>
    <clipPath id="e">
        <rect height="152" width="192"/>
    </clipPath>
    <path d="m 20.476562 29.140625 v 86.949219 h 80.359376 c 3.707031 0 6.695312 -3.691406 6.695312 -8.28125 v -70.386719 c 0 -4.589844 -2.988281 -8.28125 -6.695312 -8.28125 z m 0 0" fill="#26a269"/>
    <path d="m 22.152344 41.5625 v 72.457031 h 78.683594 c 3.707031 0 6.695312 -3.691406 6.695312 -8.28125 v -55.894531 c 0 -4.589844 -2.988281 -8.28125 -6.695312 -8.28125 z m 0 0" fill="url(#b)"/>
    <path d="m 20.476562 10.507812 v 97.300782 h 80.359376 c 3.707031 0 6.695312 -3.691406 6.695312 -8.28125 v -80.738282 c 0 -4.585937 -2.988281 -8.28125 -6.695312 -8.28125 z m 0 0" fill="#26a269"/>
    <path d="m 20.476562 8.4375 v 97.300781 h 80.359376 c 3.707031 0 6.695312 -3.691406 6.695312 -8.28125 v -80.738281 c 0 -4.585938 -2.988281 -8.28125 -6.695312 -8.28125 z m 0 0" fill="url(#c)"/>
    <path d="m 20.476562 8.4375 h 6.695313 v 97.300781 h -6.695313 z m 0 0" fill="#3d3846"/>
    <path d="m 20.476562 105.738281 v 10.351563 h 6.695313 v -2.070313 h -5.019531 v -6.210937 h 5.019531 v -2.070313 z m 0 0" fill="#241f31"/>
    <g mask="url(#d)">
        <g clip-path="url(#e)" transform="matrix(1 0 0 1 -8 -16)">
            <path d="m 14.94933 278.089616 v -93.998976" fill="none" stroke="#ffffff" stroke-width="2" transform="matrix(0.837053 0 0 1.035126 18.474901 -166.119502)"/>
        </g>
    </g>
    <path d="m 39.171875 68.820312 c -0.945313 -0.019531 -1.867187 0.34375 -2.542969 0.972657 c -1.324218 1.292969 -1.324218 3.40625 0 4.699219 l 9.085938 8.6875 l -9.085938 8.691406 c -1.324218 1.292968 -1.324218 3.40625 0 4.699218 c 1.351563 1.273438 3.53125 1.273438 4.882813 0 l 11.511719 -11.039062 c 1.351562 -1.292969 1.351562 -3.40625 0 -4.699219 l -11.511719 -11.039062 c -0.609375 -0.582031 -1.464844 -0.929688 -2.339844 -0.972657 z m 20.058594 22.640626 v 5.519531 h 17.269531 v -5.519531 z m 0 0" fill="#3d3846"/>
</svg>
