<?xml version="1.0" encoding="UTF-8"?>
<svg width="256" height="256" version="1.1"
     xmlns="http://www.w3.org/2000/svg"
     xmlns:xlink="http://www.w3.org/1999/xlink">
  <defs>
    <linearGradient id="Gradient" x1="0" x2="0" y1="0" y2="1">
      <stop offset="0%" style="stop-color:#1C71D8;stop-opacity:1" />
      <stop offset="100%" style="stop-color:#2EC27E;stop-opacity:1" />
    </linearGradient>
    <filter id="alpha-to-white">
      <feColorMatrix in="SourceGraphic" type="matrix"
                     values="0 0 0 0 1 0 0 0 0 1 0 0 0 0 1 0 0 0 1 0"/>
    </filter>
    <g id="child-svg"><svg xmlns="http://www.w3.org/2000/svg" height="16px" viewBox="0 0 16 16" width="16px"><g fill="#222222"><path d="m 4.515625 5.898438 c -0.164063 -0.003907 -0.324219 0.0625 -0.441406 0.175781 c -0.230469 0.234375 -0.230469 0.617187 0 0.851562 l 1.578125 1.574219 l -1.578125 1.574219 c -0.230469 0.234375 -0.230469 0.617187 0 0.851562 c 0.234375 0.230469 0.613281 0.230469 0.847656 0 l 2 -2 c 0.234375 -0.234375 0.234375 -0.617187 0 -0.851562 l -2 -2 c -0.105469 -0.105469 -0.253906 -0.167969 -0.40625 -0.175781 z m 3.484375 4.101562 v 1 h 3 v -1 z m 0 0" /><path d="m 3.039062 0 c -1.667968 0 -3.039062 1.371094 -3.039062 3.039062 v 8.921876 c 0 1.667968 1.371094 3.039062 3.039062 3.039062 h 9.921876 c 1.667968 0 3.039062 -1.371094 3.039062 -3.039062 v -8.921876 c 0 -1.667968 -1.371094 -3.039062 -3.039062 -3.039062 z m 0 2 h 9.921876 c 0.59375 0 1.039062 0.445312 1.039062 1.039062 v 8.921876 c 0 0.59375 -0.445312 1.039062 -1.039062 1.039062 h -9.921876 c -0.59375 0 -1.039062 -0.445312 -1.039062 -1.039062 v -8.921876 c 0 -0.59375 0.445312 -1.039062 1.039062 -1.039062 z m 0 0" /></g></svg></g>
  </defs>
  <rect
      width="256"
      height="256"
      fill="url(#Gradient)"
      ry="128"
      x="0"
      y="0" />
  <use xlink:href="#child-svg" filter="url(#alpha-to-white)"
       transform="matrix(8,0,0,8,64,64)" />
</svg>