<?xml version="1.0" encoding="UTF-8"?>
<svg height="128px" viewBox="0 0 128 128" width="128px" xmlns="http://www.w3.org/2000/svg" xmlns:xlink="http://www.w3.org/1999/xlink">
    <linearGradient id="a" gradientTransform="matrix(0.209263 0 0 0.258781 20.477366 46.73779)" gradientUnits="userSpaceOnUse" x1="384" x2="416" y1="120" y2="120">
        <stop offset="0" stop-color="#e8e7e4"/>
        <stop offset="0.511049" stop-color="#ffffff"/>
        <stop offset="1" stop-color="#c2bfba"/>
    </linearGradient>
    <linearGradient id="b" gradientTransform="matrix(0.781121 0 0 1.035126 16.960189 -182.119502)" gradientUnits="userSpaceOnUse" x1="11.698766" x2="115.949623" y1="231.046432" y2="231.091248">
        <stop offset="0" stop-color="#2ec27e"/>
        <stop offset="1" stop-color="#57e389"/>
    </linearGradient>
    <path d="m 23.773438 29.140625 v 86.949219 h 77.316406 c 3.566406 0 6.441406 -3.691406 6.441406 -8.28125 v -70.386719 c 0 -4.589844 -2.875 -8.28125 -6.441406 -8.28125 z m 0 0" fill="#26a269"/>
    <path d="m 22.152344 41.5625 v 72.457031 h 78.683594 c 3.707031 0 6.695312 -3.691406 6.695312 -8.28125 v -55.894531 c 0 -4.589844 -2.988281 -8.28125 -6.695312 -8.28125 z m 0 0" fill="url(#a)"/>
    <path d="m 24.871094 10.507812 v 97.300782 h 76.300781 c 3.523437 0 6.359375 -3.691406 6.359375 -8.28125 v -80.738282 c 0 -4.585937 -2.835938 -8.28125 -6.359375 -8.28125 z m 0 0" fill="#26a269"/>
    <path d="m 26.292969 8.4375 v 97.300781 h 74.988281 c 3.460938 0 6.25 -3.691406 6.25 -8.28125 v -80.738281 c 0 -4.585938 -2.789062 -8.28125 -6.25 -8.28125 z m 0 0" fill="url(#b)"/>
    <path d="m 20.476562 8.4375 h 6.695313 v 97.351562 h -6.695313 z m 0 0" fill="#5e5c64"/>
    <path d="m 20.476562 105.738281 v 10.351563 h 6.695313 v -2.070313 h -5.019531 v -6.210937 h 5.019531 v -2.070313 z m 0 0" fill="#3d3846"/>
    <path d="m 14.94933 278.089616 v -93.998976" fill="none" stroke="#77767b" stroke-width="2" transform="matrix(0.837053 0 0 1.035126 10.474901 -182.119502)"/>
    <path d="m 38.296875 70.109375 c -0.945313 -0.023437 -1.867187 0.34375 -2.539063 0.96875 c -1.328124 1.292969 -1.328124 3.40625 0 4.699219 l 9.085938 8.691406 l -9.085938 8.6875 c -1.328124 1.296875 -1.328124 3.410156 0 4.703125 c 1.347657 1.269531 3.53125 1.269531 4.878907 0 l 11.515625 -11.039063 c 1.347656 -1.296874 1.347656 -3.410156 0 -4.703124 l -11.515625 -11.039063 c -0.605469 -0.582031 -1.460938 -0.925781 -2.339844 -0.96875 z m 20.058594 22.640625 v 5.519531 h 17.273437 v -5.519531 z m 0 0" fill="#3d3846"/>
    <path d="m 38.285156 67.023438 c -0.945312 -0.023438 -1.867187 0.34375 -2.539062 0.96875 c -1.328125 1.292968 -1.328125 3.40625 0 4.699218 l 9.082031 8.691406 l -9.082031 8.6875 c -1.328125 1.292969 -1.328125 3.40625 0 4.703126 c 1.347656 1.269531 3.53125 1.269531 4.878906 0 l 11.511719 -11.042969 c 1.351562 -1.292969 1.351562 -3.40625 0 -4.699219 l -11.511719 -11.039062 c -0.609375 -0.582032 -1.460938 -0.925782 -2.339844 -0.96875 z m 20.058594 22.636718 v 5.519532 h 17.273438 v -5.519532 z m 0 0" fill="#5e5c64"/>
</svg>
